<svg width="918" height="500" viewBox="0 0 918 500" fill="none" xmlns="http://www.w3.org/2000/svg">
<path d="M483 323V263H453V248H483V218H513V248H543V263H513V323H483ZM573 323V308H558V248H588V308H633V248H663V323H573ZM723 263H738V278H723V323H693V248H723V263ZM783 248V263H738V248H783ZM813 323V308H798V263H813V248H888V263H903V293H828V308H888V323H813ZM828 278H873V263H828V278Z" fill="black"/>
<path d="M365.72 280.08V292.08C365.72 314.4 366.92 316.32 383 316.8V322.08H329.48V316.8C345.32 316.32 346.52 314.4 346.52 292.08V175.2C346.52 154.8 345.56 153.6 329.48 153.36V148.08L367.16 146.16C366.2 162.24 365.72 181.68 365.72 194.16V270.24L403.4 228.96C408.92 222.96 411.8 217.68 411.8 214.08C411.8 209.04 407.24 206.64 396.68 206.16V200.88H449.72V206.16C442.76 206.88 438.92 208.32 433.64 211.44C425.48 216.48 424.52 217.2 410.12 232.8L397.64 246.24L431.24 299.04C439.4 312 443.48 315.12 454.04 316.8V322.08H421.4C419 317.04 411.32 303.36 408.92 299.04L384.44 259.2L365.72 280.08Z" fill="black"/>
<path d="M230.8 167.2C227.067 167.2 224.4 166 222.8 163.6C221.733 162.267 221.2 160.533 221.2 158.4C221.2 154.133 223.2 150.667 227.2 148C230.133 146.4 232.8 145.6 235.2 145.6C239.2 145.6 242 146.8 243.6 149.2C244.667 150.533 245.2 152.267 245.2 154.4C245.2 158.667 243.067 162.133 238.8 164.8C236.4 166.4 233.733 167.2 230.8 167.2ZM161.2 321.2C158.533 321.2 156.267 320.667 154.4 319.6C152.8 318.533 152 316.533 152 313.6C152 309.867 152.933 305.467 154.8 300.4C156.933 295.333 159.2 290.267 161.6 285.2C164.267 280.133 166.267 276 167.6 272.8C169.467 269.067 171.733 264.267 174.4 258.4C177.333 252.267 180 246.533 182.4 241.2C185.067 235.6 186.933 231.733 188 229.6C184.267 233.6 179.733 238.667 174.4 244.8C169.333 250.667 164.533 256.4 160 262C155.467 267.6 152 272 149.6 275.2C148.8 276.267 148.133 276.8 147.6 276.8C147.067 276.8 146.8 276.133 146.8 274.8C146.8 272.667 147.467 270.667 148.8 268.8C153.867 262.4 159.467 255.2 165.6 247.2C172 239.2 177.733 231.867 182.8 225.2C187.867 218.267 191.067 213.733 192.4 211.6C195.333 211.067 199.6 210.267 205.2 209.2C211.067 208.133 215.067 206.667 217.2 204.8C218 204 218.8 203.6 219.6 203.6C220.133 203.6 220.4 204.133 220.4 205.2C220.667 206 220.4 206.933 219.6 208C218 209.867 215.2 214.4 211.2 221.6C207.2 228.8 202.933 236.8 198.4 245.6C194.133 254.133 190.133 261.867 186.4 268.8C182.667 276 179.467 282.933 176.8 289.6C174.133 296.267 172.8 301.067 172.8 304C172.8 307.733 174.667 309.6 178.4 309.6C181.867 309.6 186.267 307.467 191.6 303.2C197.2 298.933 202.8 293.867 208.4 288C214 281.867 218.933 276.267 223.2 271.2C224.533 269.6 226.133 267.733 228 265.6C230.133 263.2 231.467 261.733 232 261.2C232.533 261.733 232.8 262.667 232.8 264C232.533 265.867 231.867 267.733 230.8 269.6C229.733 271.2 228.667 272.667 227.6 274C222 280.933 215.867 288.133 209.2 295.6C202.533 302.8 195.2 308.933 187.2 314C179.2 318.8 170.533 321.2 161.2 321.2Z" fill="black"/>
<path d="M272.52 321.68C261.96 321.68 253 319.28 245.64 314.48C238.44 309.68 233 303.44 229.32 295.76C225.64 287.92 223.8 279.52 223.8 270.56C223.8 262.08 225.4 253.6 228.6 245.12C231.96 236.64 236.84 228.88 243.24 221.84C249.64 214.64 257.4 208.96 266.52 204.8C275.8 200.48 286.44 198.32 298.44 198.32C310.28 198.32 319.08 200.72 324.84 205.52C330.6 210.16 333.48 215.28 333.48 220.88C333.48 226.8 330.52 232.24 324.6 237.2C318.68 242.16 310.04 244.64 298.68 244.64C299.32 242.24 299.8 239.84 300.12 237.44C300.6 234.88 300.84 232.48 300.84 230.24C300.84 226.88 300.12 224.08 298.68 221.84C297.24 219.44 294.68 218.24 291 218.24C287.64 218.24 284.04 219.76 280.2 222.8C276.52 225.84 273.32 230.32 270.6 236.24C268.04 242.16 266.76 249.44 266.76 258.08C266.76 266.56 268.12 273.44 270.84 278.72C273.72 284 277.4 287.84 281.88 290.24C286.36 292.48 291.08 293.6 296.04 293.6C302.6 293.6 308.92 291.92 315 288.56C321.08 285.04 325.48 280.24 328.2 274.16L330.6 275.12C330.6 283.44 328.68 290.56 324.84 296.48C321.16 302.24 316.36 307.04 310.44 310.88C304.52 314.56 298.2 317.28 291.48 319.04C284.76 320.8 278.44 321.68 272.52 321.68Z" fill="black"/>
<path d="M25 314.934V181.34H7.91016V174.309H83.1055V182.121C85.7747 178.54 89.5182 175.741 94.3359 173.723C99.2188 171.639 105.664 170.598 113.672 170.598C124.154 170.598 133.268 172.193 141.016 175.383C148.763 178.508 155.176 182.74 160.254 188.078C165.332 193.352 169.108 199.504 171.582 206.535C174.121 213.566 175.391 220.956 175.391 228.703C175.391 236.451 174.121 243.84 171.582 250.871C169.108 257.837 165.332 263.99 160.254 269.328C155.176 274.667 148.763 278.898 141.016 282.023C133.268 285.148 124.154 286.711 113.672 286.711C106.445 286.711 100.358 285.799 95.4102 283.977C90.5273 282.219 86.4258 279.973 83.1055 277.238V314.934H100.195V321.965H7.91016V314.934H25ZM82.1289 252.336C82.1289 254.875 82.487 257.544 83.2031 260.344C83.9844 263.143 85.1237 265.715 86.6211 268.059C88.1185 270.402 89.974 272.355 92.1875 273.918C94.4661 275.415 97.1354 276.164 100.195 276.164C102.93 276.164 105.273 275.35 107.227 273.723C109.18 272.03 110.742 269.328 111.914 265.617C113.151 261.841 114.03 256.926 114.551 250.871C115.137 244.816 115.43 237.427 115.43 228.703C115.43 219.784 115.137 212.329 114.551 206.34C114.03 200.35 113.118 195.533 111.816 191.887C110.514 188.241 108.822 185.669 106.738 184.172C104.655 182.609 102.051 181.828 98.9258 181.828C96.4518 181.828 94.1732 182.349 92.0898 183.391C90.0716 184.367 88.3138 185.995 86.8164 188.273C85.3841 190.487 84.2448 193.352 83.3984 196.867C82.5521 200.383 82.1289 204.68 82.1289 209.758V252.336Z" fill="black"/>
</svg>
